<?xml version="1.0" encoding="utf-8"?>
<!-- Uploaded to: SVG Repo, www.svgrepo.com, Generator: SVG Repo Mixer Tools -->
<svg width="800px" height="800px" viewBox="0 -4 32 32" xmlns="http://www.w3.org/2000/svg">
  <g id="Lager_57" data-name="Lager 57" transform="translate(0 -8)">
    <path id="Path_64" data-name="Path 64" d="M20,12a8.009,8.009,0,0,1,7.982,8.548A8.19,8.19,0,0,1,19.718,28H8.178A4.12,4.12,0,0,1,4.02,24.4,4,4,0,0,1,8,20c.117,0,.232.011.346.02l1.544.131a2,2,0,0,0,2.057-1.331l.513-1.462A8,8,0,0,1,20,12m0-4A11.994,11.994,0,0,0,8.685,16.035C8.459,16.015,8.231,16,8,16A8,8,0,0,0,8,32H20A12,12,0,0,0,20,8Z" fill="#161615"/>
  </g>
</svg>